<svg width="188" height="188" viewBox="0 0 188 188" fill="none" xmlns="http://www.w3.org/2000/svg">
<path d="M151.805 94.7782L93.9385 36.978L36.1275 94.7224L93.9943 152.523L151.805 94.7782Z" fill="#5CC4FF"/>
<path d="M94.0294 122.056C118.361 122.056 138.086 102.222 138.086 77.7567C138.086 53.291 118.361 33.4576 94.0294 33.4576C69.6977 33.4576 49.9729 53.291 49.9729 77.7567C49.9729 102.222 69.6977 122.056 94.0294 122.056Z" fill="#222222"/>
<path fill-rule="evenodd" clip-rule="evenodd" d="M94.0294 119.709C117.049 119.709 135.736 100.941 135.736 77.7567C135.736 54.5725 117.049 35.8046 94.0294 35.8046C71.01 35.8046 52.3226 54.5725 52.3226 77.7567C52.3226 100.941 71.01 119.709 94.0294 119.709ZM138.086 77.7567C138.086 102.222 118.361 122.056 94.0294 122.056C69.6977 122.056 49.9729 102.222 49.9729 77.7567C49.9729 53.291 69.6977 33.4576 94.0294 33.4576C118.361 33.4576 138.086 53.291 138.086 77.7567Z" fill="white"/>
<path d="M94.0294 152.566C105.06 152.566 114.002 143.766 114.002 132.911C114.002 122.055 105.06 113.255 94.0294 113.255C82.999 113.255 74.0571 122.055 74.0571 132.911C74.0571 143.766 82.999 152.566 94.0294 152.566Z" fill="#FFD800"/>
<path d="M94.0292 110.321C111.872 110.321 126.337 95.7413 126.337 77.7566C126.337 59.7719 111.872 45.1924 94.0292 45.1924C76.186 45.1924 61.7212 59.7719 61.7212 77.7566C61.7212 95.7413 76.186 110.321 94.0292 110.321Z" fill="white"/>
</svg>
